<svg width="62" height="62" viewBox="0 0 62 62" fill="none" xmlns="http://www.w3.org/2000/svg">
<path d="M19.7755 37.5526L18.817 35.8562L17.8248 36.4217L17.0681 34.8418L15.7901 35.2575L14.983 33.794L13.789 34.243L13.3014 32.9126L12.1747 33.2452V24.1814L0 17.6953V47.6475L30.2181 62L30.235 33.8106L19.7755 28.2227V37.5526Z" fill="#EF9F42"/>
<path d="M41.5185 5.68777L30.8573 0L0.622314 16.0987L12.4102 22.3852L41.5185 5.68777Z" fill="#EF9F42"/>
<path d="M48.9843 9.66211L19.9433 26.3928L30.84 32.2136L61.0749 16.1149L48.9843 9.66211Z" fill="#EF9F42"/>
<path d="M31.7819 33.8106V62L62 47.6642V17.7119L31.7819 33.8106ZM49.6908 38.1513L52.3141 40.3965L50.582 40.9785V46.8326L48.8332 47.7639V41.5606L46.8993 42.1427L49.6908 38.1679V38.1513ZM58.3005 45.1196L47.3702 50.375V49.3106L58.3005 44.0552V45.1196ZM56.8375 38.118V43.9721L55.0887 44.9034V38.7001L53.1549 39.2822L55.9463 35.3074L58.5696 37.5526L56.8375 38.1346V38.118Z" fill="#EF9F42"/>
</svg>
