<svg width="67" height="62" viewBox="0 0 67 62" fill="none" xmlns="http://www.w3.org/2000/svg">
<path d="M47.5037 40.4319V46.2318C47.5037 49.7117 44.6902 52.5232 41.2077 52.5232H16.2597C12.7772 52.5232 9.9637 49.7117 9.9637 46.2318V21.3414C9.9637 17.8614 12.7772 15.0106 16.2597 15.0106H30.1306L39.614 5.53418H16.2597C7.58302 5.53418 0.5 12.6317 0.5 21.3414V46.2318C0.5 54.9414 7.58302 61.9996 16.2794 61.9996H41.2273C49.904 61.9996 57.0067 54.9611 57.0067 46.2318V30.9554L47.5234 40.4319H47.5037Z" fill="#EF9F42"/>
<path d="M58.4234 1.36642L28.2025 31.5259L23.933 27.2595C22.0836 25.4114 19.0929 25.4114 17.2435 27.2595C15.4137 29.1273 15.4137 32.096 17.2435 33.9441L28.2025 44.8951L65.1129 8.05104C66.9623 6.20294 66.9623 3.21452 65.1129 1.38608C63.2634 -0.462026 60.2925 -0.462026 58.443 1.38608L58.4234 1.36642Z" fill="#EF9F42"/>
</svg>
