<svg width="80" height="62" viewBox="0 0 80 62" fill="none" xmlns="http://www.w3.org/2000/svg">
<path d="M78.0958 3.51425L75.2453 1.18088C73.0258 -0.612366 69.74 -0.331496 67.8469 1.80743L51.3095 20.8201H71.0021L78.9009 10.8385C80.6417 8.59151 80.2718 5.3075 78.0958 3.51425Z" fill="#EF9F42"/>
<path d="M76.1375 24.9463H2.24126C1.00095 24.9463 0 25.9401 0 27.1716C0 38.212 6.3321 47.9992 16.037 54.0919V59.7741C16.037 61.0056 17.0379 61.9995 18.2782 61.9995H60.0788C61.3191 61.9995 62.32 61.0056 62.32 59.7741V54.0919C72.0249 47.9992 78.357 38.212 78.357 27.1716C78.357 25.9401 77.356 24.9463 76.1157 24.9463H76.1375ZM49.7864 45.8819C49.7864 46.4436 49.3294 46.8757 48.7854 46.8757H42.6274V52.99C42.6274 53.5518 42.1705 53.9839 41.6265 53.9839H36.7958C36.23 53.9839 35.7948 53.5302 35.7948 52.99V46.8757H29.6368C29.0711 46.8757 28.6359 46.422 28.6359 45.8819V41.0855C28.6359 40.5237 29.0928 40.0916 29.6368 40.0916H35.7948V33.9773C35.7948 33.4156 36.2518 32.9835 36.7958 32.9835H41.6265C42.1922 32.9835 42.6274 33.4372 42.6274 33.9773V40.0916H48.7854C49.3512 40.0916 49.7864 40.5453 49.7864 41.0855V45.8819Z" fill="#EF9F42"/>
</svg>
