<svg width="62" height="62" viewBox="0 0 62 62" fill="none" xmlns="http://www.w3.org/2000/svg">
<path fill-rule="evenodd" clip-rule="evenodd" d="M20.2218 58.8515L41.7782 58.8514C42.396 58.8514 42.8528 58.2899 42.7267 57.685C41.5939 52.2469 36.7743 48.1612 31 48.1612C25.2257 48.1612 20.406 52.2471 19.2732 57.685C19.1472 58.29 19.604 58.8515 20.2218 58.8515ZM39.0845 36.3231C39.5463 36.0577 40.1359 36.217 40.4014 36.6789C40.6668 37.1407 40.5075 37.7303 40.0456 37.9958L38.6112 38.8239C38.1494 39.0894 37.5598 38.93 37.2944 38.4682C37.0289 38.0063 37.1883 37.4167 37.6501 37.1513L39.0845 36.3231ZM30.0313 27.8283C30.0313 27.2933 30.465 26.8595 31 26.8595C31.535 26.8595 31.9688 27.2933 31.9688 27.8283V32.5641C31.9688 33.0991 31.535 33.5329 31 33.5329C30.465 33.5329 30.0313 33.0991 30.0313 32.5641V27.8283ZM21.9508 37.9959C21.489 37.7284 21.3314 37.1371 21.5989 36.6752C21.8664 36.2134 22.4577 36.0558 22.9196 36.3233L24.3539 37.1515C24.8158 37.419 24.9733 38.0103 24.7058 38.4722C24.4383 38.934 23.847 39.0915 23.3852 38.824L21.9508 37.9959ZM49.4668 18.4592C43.615 18.4592 38.8711 23.2031 38.8711 29.0549C38.8711 34.9068 43.615 39.6506 49.4668 39.6506C55.3187 39.6506 60.0625 34.9068 60.0625 29.0549C60.0625 23.2031 55.3187 18.4592 49.4668 18.4592ZM47.7215 22.9631H51.2124C51.4006 22.9631 51.5545 23.117 51.5545 23.3052V26.9675H55.2168C55.405 26.9675 55.5589 27.1214 55.5589 27.3096V30.8004C55.5589 30.9886 55.405 31.1425 55.2168 31.1425H51.5545V34.8048C51.5545 34.993 51.4006 35.1469 51.2124 35.1469H47.7215C47.5333 35.1469 47.3794 34.993 47.3794 34.8048V31.1425H43.7169C43.5287 31.1425 43.3748 30.9886 43.3748 30.8004V27.3096C43.3748 27.1214 43.5287 26.9675 43.7169 26.9675H47.3794V23.3052C47.3794 23.1169 47.5333 22.9631 47.7215 22.9631ZM31.0001 35.245C27.6552 35.245 24.9434 37.9567 24.9434 41.3017C24.9434 44.6467 27.6552 47.3585 31.0001 47.3585C34.3451 47.3585 37.0569 44.6467 37.0569 41.3017C37.0569 37.9567 34.3451 35.245 31.0001 35.245Z" fill="#EF9F42"/>
<g clip-path="url(#clip0_894_1659)">
<path fill-rule="evenodd" clip-rule="evenodd" d="M7.33221 37.9925L6.22662 36.7054C6.07029 36.5236 5.88514 36.4163 5.64876 36.3742L5.06206 36.2624L3.1374 43.4502L5.72275 42.515C5.86601 42.4632 6.02609 42.5063 6.1243 42.6227L7.89735 44.7238L9.60187 38.3688L9.17695 38.5077C8.51057 38.7254 7.78909 38.5244 7.33221 37.9925ZM20.866 26.9528C20.7324 27.3335 20.7326 27.7159 20.866 28.0966L21.4273 29.6979C21.5677 30.0984 21.4577 30.5096 21.1353 30.7861L19.8482 31.8906C19.5428 32.1527 19.3504 32.4852 19.2765 32.8808L18.9647 34.5495C18.8871 34.9648 18.5861 35.2684 18.1702 35.3463L16.4976 35.6598C16.1021 35.7339 15.7705 35.9255 15.5085 36.231L14.4028 37.5198C14.127 37.8413 13.7161 37.951 13.3165 37.8105L11.7176 37.2487C11.3339 37.1138 10.9525 37.1123 10.5686 37.2475L8.96952 37.8105C8.57003 37.9512 8.15892 37.8412 7.88319 37.5198L6.77748 36.231C6.51531 35.9254 6.18364 35.7341 5.78814 35.6598L4.12116 35.3463C3.70291 35.2677 3.40344 34.9686 3.32122 34.5495L3.0094 32.8808C2.93554 32.4854 2.74251 32.1536 2.4376 31.8917L1.15219 30.7875C0.826448 30.5128 0.718067 30.0987 0.858536 29.6977L1.41993 28.0965C1.55349 27.7158 1.55349 27.3334 1.41993 26.9527L0.858536 25.3521C0.717825 24.951 0.8279 24.5401 1.15049 24.2632L2.4376 23.1581C2.74276 22.896 2.93541 22.5634 3.0094 22.1679L3.3217 20.4982C3.40356 20.081 3.70267 19.7816 4.12141 19.7029L5.78838 19.3899C6.18424 19.3155 6.51531 19.1231 6.7776 18.8175L7.88331 17.5298C8.07355 17.3083 8.33547 17.1783 8.6284 17.1783C8.74477 17.1783 8.8632 17.1995 8.96952 17.2385L10.5684 17.801C10.9523 17.936 11.3336 17.936 11.7175 17.801L13.3164 17.2385C13.716 17.0979 14.1269 17.2086 14.4028 17.5298L15.5083 18.8175C15.7706 19.123 16.1017 19.3158 16.4974 19.3898L18.1701 19.7028C18.5867 19.7808 18.8906 20.0845 18.9646 20.5002L19.2764 22.1678C19.3504 22.5636 19.5427 22.8958 19.8482 23.158L21.1353 24.2631C21.4579 24.54 21.5679 24.9509 21.4272 25.3519L20.866 26.9528ZM18.5979 27.5241C18.5979 23.4156 15.2548 20.0698 11.1458 20.0698C7.03468 20.0698 3.68813 23.4124 3.68813 27.5241C3.68813 31.6363 7.03395 34.9802 11.1458 34.9802C15.2555 34.9802 18.5979 31.6329 18.5979 27.5241ZM16.6344 36.3747C16.4009 36.4163 16.2158 36.5236 16.0594 36.7054L14.9538 37.9925C14.6263 38.3739 14.1548 38.596 13.652 38.596C13.4711 38.596 13.288 38.5654 13.1164 38.508L12.6895 38.3653L14.3883 44.724L16.1619 42.6224C16.2602 42.5059 16.4203 42.4632 16.5637 42.5149L19.1547 43.4498L17.224 36.2622L16.6344 36.3747ZM17.8745 27.5241C17.8745 31.2325 14.8541 34.2534 11.1458 34.2534C7.43453 34.2534 4.41712 31.2353 4.41712 27.5241C4.41712 23.8136 7.43526 20.796 11.1458 20.796C14.8535 20.796 17.8745 23.8163 17.8745 27.5241ZM14.5407 25.1723C14.3997 25.0308 14.1684 25.0315 14.0274 25.1727L10.0969 29.1056L8.25858 27.2679C8.11556 27.125 7.8873 27.1267 7.74417 27.2686C7.60067 27.4108 7.60273 27.64 7.7449 27.7823L9.83715 29.8767C9.90714 29.9468 9.99833 29.9827 10.0968 29.9827C10.1928 29.9827 10.283 29.9444 10.3508 29.8767L14.541 25.6871C14.6842 25.544 14.6831 25.3155 14.5407 25.1723Z" fill="#EF9F42"/>
</g>
<path d="M39.4058 6.25125C39.0852 4.9946 38.0075 4.11719 36.7848 4.11719C36.7846 4.11719 36.7844 4.11719 36.7842 4.11719H35.2204H26.6847H25.1211C25.1208 4.11719 25.1207 4.11719 25.1204 4.11719C23.8978 4.11719 22.82 4.99467 22.4995 6.25117C22.3361 6.89172 22.2983 7.90599 23.0471 9.10011C23.619 10.0123 24.5492 10.8534 25.8134 11.6053C25.9702 13.9879 27.7534 15.9336 30.0609 16.3397V18.2928H27.2944C26.8019 18.2928 26.4027 18.692 26.4027 19.1845V22.8427C26.4027 23.3351 26.8019 23.7344 27.2944 23.7344H34.6108C35.1032 23.7344 35.5025 23.3351 35.5025 22.8427V19.1845C35.5025 18.692 35.1032 18.2928 34.6108 18.2928H31.8443V16.3413C34.1577 15.9386 35.9463 13.9883 36.1009 11.5999C37.3605 10.8494 38.2875 10.0102 38.8581 9.10011C39.6069 7.90603 39.5692 6.89183 39.4058 6.25125ZM24.2274 6.6921C24.3601 6.17236 24.777 5.90059 25.1207 5.90059H25.1209H25.7943L25.7993 9.45004C24.4204 8.39006 24.0538 7.37291 24.2274 6.6921ZM36.1121 9.44532V5.90055H36.7845H36.7847C37.1282 5.90055 37.5452 6.17239 37.6779 6.69214C37.8512 7.37192 37.4859 8.38703 36.1121 9.44532Z" fill="#EF9F42"/>
<defs>
<clipPath id="clip0_894_1659">
<rect width="21.5547" height="27.7305" fill="white" transform="translate(0 17.0742)"/>
</clipPath>
</defs>
</svg>
