<svg width="64" height="62" viewBox="0 0 64 62" fill="none" xmlns="http://www.w3.org/2000/svg">
<path d="M25.0702 60.8782C20.6385 60.8782 16.2228 60.8782 11.7911 60.8782C10.7031 60.8782 10.3032 60.499 10.3032 59.4088C10.3032 52.8675 10.3032 46.3104 10.3032 39.7691C10.3032 38.7105 10.7351 38.3313 11.8231 38.2997C14.2869 38.2365 16.4628 38.9633 18.4146 40.4643C20.4465 42.0286 22.7823 42.8028 25.3582 42.8028C27.342 42.8028 29.3419 42.787 31.3258 42.8028C33.4376 42.8344 35.2775 44.209 35.7575 46.105C35.8375 46.4368 35.8535 46.7686 35.8215 47.1004C35.6775 48.2222 35.3735 48.4592 34.2536 48.475C31.8537 48.5066 29.4699 48.3644 27.07 48.5698C24.8142 48.7595 22.8463 49.6917 21.0544 51.0031C20.5585 51.3665 20.5105 52.0459 20.8625 52.5199C21.2304 53.0255 21.8704 53.1361 22.4304 52.7253C23.6623 51.8563 24.9902 51.1927 26.4941 50.9083C27.166 50.7819 27.822 50.7029 28.5099 50.7029C31.7897 50.7029 35.0695 50.7029 38.3653 50.7029C39.0532 50.7029 39.7092 50.5923 40.3492 50.3869C47.2127 48.1274 54.0762 45.868 60.9398 43.5928C61.5318 43.4032 62.1237 43.2452 62.7317 43.498C63.4996 43.8298 63.9476 44.4144 63.9956 45.236C64.0436 46.026 63.6916 46.6422 62.9877 47.0688C60.6838 48.4592 58.364 49.8497 56.0601 51.2401C51.3884 54.0525 46.7007 56.8492 42.029 59.6774C40.6691 60.499 39.2452 60.894 37.6453 60.8782C33.4536 60.8466 29.2619 60.8782 25.0702 60.8782Z" fill="#EF9F42"/>
<path d="M8.06346 49.012C8.06346 52.7567 8.06346 56.5014 8.06346 60.2302C8.06346 61.747 7.80748 61.9998 6.23958 61.9998C4.71969 61.9998 3.18379 61.9998 1.66389 61.9998C0.351977 61.9998 0 61.668 0 60.3882C0 55.8061 0 51.2241 0 46.6578C0 43.64 0 40.6379 0 37.6201C0 36.435 0.399973 36.04 1.59989 36.04C3.23179 36.04 4.86368 36.04 6.49557 36.04C7.64749 36.04 8.04747 36.435 8.04747 37.5885C8.04747 41.3963 8.04747 45.2042 8.04747 48.9962L8.06346 49.012Z" fill="#EF9F42"/>
<path d="M30.2062 31.1739C26.7344 30.7157 23.3427 29.3095 20.6708 27.2554L23.8226 22.5469C25.9985 24.2376 28.0143 25.391 30.3982 25.8966V19.3395C24.5906 17.7279 21.7108 15.5 21.7108 10.5862V10.5072C21.7108 5.97249 25.1025 2.95465 30.1902 2.41744V0H34.3819V2.51224C37.2457 2.87564 39.6776 3.96586 41.8854 5.53009L39.1816 10.365C37.5657 9.24314 35.8378 8.38993 34.1739 7.93172V14.2044C40.3175 15.895 42.9414 18.4231 42.9414 23.0368V23.1158C42.9414 27.7452 39.4696 30.7157 34.3819 31.2529V35.3451H30.1902V31.1739H30.2062ZM30.3982 13.1616V7.55252C28.4143 7.80532 27.6144 8.78494 27.6144 10.1122V10.1912C27.6144 11.5184 28.1743 12.34 30.3982 13.1616ZM34.1899 20.3191V26.102C36.0938 25.8176 37.0537 24.9486 37.0537 23.4634V23.3844C37.0537 22.0255 36.3658 21.1565 34.1899 20.3349V20.3191Z" fill="#EF9F42"/>
</svg>
