<svg width="126" height="119" viewBox="0 0 126 119" fill="none" xmlns="http://www.w3.org/2000/svg">
<path d="M89.7342 77.2447V88.3253C89.7342 94.9737 84.3629 100.345 77.7145 100.345H30.0867C23.4383 100.345 18.067 94.9737 18.067 88.3253V40.7726C18.067 34.1242 23.4383 28.6778 30.0867 28.6778H56.5675L74.6721 10.5732H30.0867C13.5221 10.5732 0 24.1329 0 40.7726V88.3253C0 104.965 13.5221 118.45 30.1242 118.45H77.7521C94.3167 118.45 107.876 105.003 107.876 88.3253V59.1401L89.7718 77.2447H89.7342Z" fill="#EF9F42"/>
<path d="M110.581 2.61052L52.8863 60.2297L44.7355 52.0789C41.2047 48.5481 35.4954 48.5481 31.9646 52.0789C28.4714 55.6472 28.4714 61.319 31.9646 64.8498L52.8863 85.7715L123.352 15.3814C126.882 11.8506 126.882 6.14129 123.352 2.64808C119.821 -0.882693 114.149 -0.882693 110.618 2.64808L110.581 2.61052Z" fill="#EF9F42"/>
</svg>
