<?xml version="1.0" standalone="no"?>
<!DOCTYPE svg PUBLIC "-//W3C//DTD SVG 20010904//EN"
 "http://www.w3.org/TR/2001/REC-SVG-20010904/DTD/svg10.dtd">
<svg version="1.0" xmlns="http://www.w3.org/2000/svg"
 width="1031.000000pt" height="248.000000pt" viewBox="0 0 1031.000000 248.000000"
 preserveAspectRatio="xMidYMid meet">

<g transform="translate(0.000000,248.000000) scale(0.100000,-0.100000)"
fill="#000000" stroke="none">
<path d="M1450 1870 c0 -55 1 -100 3 -100 21 0 278 100 267 104 -8 3 -72 26
-142 51 l-128 45 0 -100z"/>
<path d="M3834 1558 c13 -35 83 -226 156 -425 l133 -363 102 0 103 0 56 153
c31 83 100 274 155 422 l99 270 -86 3 c-47 2 -88 -1 -92 -5 -4 -4 -56 -150
-115 -323 -59 -173 -111 -319 -115 -323 -7 -8 -56 127 -183 500 l-52 153 -92
0 -92 0 23 -62z"/>
<path d="M4918 1207 c-82 -228 -148 -419 -148 -426 0 -8 24 -11 87 -9 l87 3
25 78 25 77 171 0 170 0 29 -80 28 -80 90 0 c77 0 89 2 84 15 -3 9 -72 200
-153 425 l-147 410 -101 0 -100 0 -147 -413z m310 38 c29 -82 52 -156 52 -162
0 -10 -30 -13 -115 -13 -67 0 -115 4 -115 10 0 8 88 269 105 313 4 10 11 15
15 10 4 -4 30 -75 58 -158z"/>
<path d="M5760 1195 l0 -425 223 2 222 3 0 65 0 65 -137 3 -138 3 0 354 0 355
-85 0 -85 0 0 -425z"/>
<path d="M6390 1195 l0 -425 85 0 85 0 0 180 0 180 180 0 180 0 0 -180 0 -180
85 0 85 0 0 425 0 425 -85 0 -85 0 0 -175 0 -175 -180 0 -180 0 0 175 0 175
-85 0 -85 0 0 -425z"/>
<path d="M7435 1208 c-81 -227 -150 -419 -152 -425 -4 -10 17 -13 85 -13 l90
0 27 80 27 80 171 -2 171 -3 27 -75 27 -75 86 -3 c65 -2 86 0 86 10 0 7 -67
197 -148 423 l-148 410 -100 3 -100 3 -149 -413z m309 37 c31 -87 56 -162 56
-167 0 -4 -54 -8 -121 -8 -111 0 -121 1 -114 18 4 9 29 81 56 160 48 142 58
166 64 160 2 -2 29 -75 59 -163z"/>
<path d="M8272 1198 l3 -423 223 -3 222 -2 0 70 0 70 -140 0 -140 0 0 355 0
355 -85 0 -85 0 2 -422z"/>
<path d="M8902 1198 l3 -423 223 -3 222 -2 0 70 0 70 -140 0 -140 0 0 355 0
355 -85 0 -85 0 2 -422z"/>
<path d="M9776 1588 c-33 -81 -286 -795 -286 -806 0 -10 23 -12 87 -10 l87 3
25 78 25 77 171 0 172 0 27 -80 28 -80 90 0 c82 0 90 2 83 18 -3 9 -72 200
-152 425 l-147 407 -98 0 -99 0 -13 -32z m177 -355 l56 -163 -119 0 c-71 0
-120 4 -120 10 0 8 88 269 105 313 4 10 11 15 15 10 4 -4 32 -81 63 -170z"/>
</g>
</svg>
