<svg width="250" height="50" viewBox="0 0 250 50" fill="none" xmlns="http://www.w3.org/2000/svg">
<rect width="250" height="50" fill="white"/>
<g style="mix-blend-mode:multiply">
<path d="M109.94 5.61133L102.512 25.6828H97.5772L90.1359 5.61133H94.4931L100.071 21.5749L105.609 5.61133H109.94Z" fill="#231F20"/>
</g>
<g style="mix-blend-mode:multiply">
<path d="M126.542 21.8606H118.471L117.132 25.6825H112.867L120.164 5.58496H124.902L132.185 25.6955H127.881L126.542 21.8736V21.8606ZM125.44 18.6366L122.513 10.2388L119.573 18.6366H125.44Z" fill="#231F20"/>
</g>
<g style="mix-blend-mode:multiply">
<path d="M140.703 22.4979H147.383V25.6828H136.648V5.61133H140.716V22.4979H140.703Z" fill="#231F20"/>
</g>
<g style="mix-blend-mode:multiply">
<path d="M168.526 5.61133V25.6828H164.458V17.142H155.783V25.6828H151.714V5.61133H155.783V13.8661H164.458V5.61133H168.526Z" fill="#231F20"/>
</g>
<g style="mix-blend-mode:multiply">
<path d="M186.703 21.8609H178.631L177.293 25.6828H173.027L180.311 5.57227H185.049L192.333 25.6828H188.028L186.69 21.8609H186.703ZM185.6 18.6369L182.674 10.2391L179.734 18.6369H185.6Z" fill="#231F20"/>
</g>
<g style="mix-blend-mode:multiply">
<path d="M200.864 22.4979H207.544V25.6828H196.808V5.61133H200.877V22.4979H200.864Z" fill="#231F20"/>
</g>
<g style="mix-blend-mode:multiply">
<path d="M215.943 22.4979H222.623V25.6828H211.888V5.61133H215.956V22.4979H215.943Z" fill="#231F20"/>
</g>
<g style="mix-blend-mode:multiply">
<path d="M239.37 21.8609H231.298L229.96 25.6828H225.694L232.978 5.57227H237.716L245 25.6828H240.695L239.357 21.8609H239.37ZM238.267 18.6369L235.328 10.2391L232.388 18.6369H238.254H238.267Z" fill="#231F20"/>
</g>
<path d="M115.032 35.7183L117.08 42.4261L118.983 35.7183H121.306L118.064 44.909H116.003L112.683 35.7183H115.045H115.032Z" fill="#EF9F42"/>
<path d="M131.988 35.7178V44.9085H129.784V35.7178H131.988Z" fill="#EF9F42"/>
<path d="M145.638 37.5377V44.8955H143.433V37.5377H140.637V35.7178H148.433V37.5377H145.638Z" fill="#EF9F42"/>
<path d="M161.058 43.2966H157.712L157.147 44.9085H154.89L158.368 36.6278L158.053 35.7178H160.113L163.906 44.9085H161.61L161.045 43.2966H161.058ZM158.276 41.6976H160.494L159.392 38.5777L158.276 41.6976Z" fill="#EF9F42"/>
<path d="M174.602 35.7181V43.0759H178.566V44.8958H172.411V35.7051H174.602V35.7181Z" fill="#EF9F42"/>
<path d="M189.42 35.7178V44.9085H187.215V35.7178H189.42Z" fill="#EF9F42"/>
<path d="M203.055 37.5377V44.8955H200.85V37.5377H198.055V35.7178H205.851V37.5377H203.055Z" fill="#EF9F42"/>
<path d="M216.455 35.7178L218.24 39.5267L220.025 35.7178H222.466L219.29 41.2686V44.9085H217.085V41.3466L213.975 35.7178H216.455Z" fill="#EF9F42"/>
<path d="M78.7573 5.42871L23.2293 24.6682L42.0755 44.9997L78.7573 5.42871Z" fill="#EF9F42"/>
<path d="M5 5L23.2293 24.6685L42.6005 17.9607L5 5Z" fill="#EF9F42"/>
<path d="M5 5L23.2293 24.6685L42.6005 17.9607L5 5Z" fill="url(#paint0_linear_569_1524)"/>
<defs>
<linearGradient id="paint0_linear_569_1524" x1="5" y1="14.8278" x2="42.6005" y2="14.8278" gradientUnits="userSpaceOnUse">
<stop stop-color="#BE6A14" stop-opacity="0"/>
<stop offset="0.98" stop-color="#BE6A14"/>
<stop offset="0.99" stop-color="#BE6A14"/>
</linearGradient>
</defs>
</svg>
